<svg width="40" height="40" viewBox="0 0 40 40" fill="none" xmlns="http://www.w3.org/2000/svg">
<rect width="40" height="40" rx="20" fill="#D2B17B"/>
<path d="M13.5921 12.8594L27.4046 18.8594C28.4046 19.2969 28.4046 20.7031 27.4046 21.1406L13.5921 27.1406C12.5296 27.6094 11.4358 26.4219 11.9983 25.3906L14.1858 21.3594C14.3108 21.1094 14.5608 20.9219 14.8733 20.8906L20.3733 20.2031C20.4671 20.2031 20.5608 20.1094 20.5608 19.9844C20.5608 19.8906 20.4671 19.7969 20.3733 19.7969L14.8733 19.1094C14.5608 19.0469 14.3108 18.8906 14.1858 18.6406L11.9983 14.6094C11.4358 13.5781 12.5296 12.3906 13.5921 12.8594Z" fill="white"/>
</svg>
