<svg width="40" height="40" viewBox="0 0 40 40" fill="none" xmlns="http://www.w3.org/2000/svg">
<rect width="40" height="40" rx="20" fill="#D3D3D3"/>
<path d="M13.5918 12.8594L27.4043 18.8594C28.4043 19.2969 28.4043 20.7031 27.4043 21.1406L13.5918 27.1406C12.5293 27.6094 11.4356 26.4219 11.9981 25.3906L14.1856 21.3594C14.3106 21.1094 14.5606 20.9219 14.8731 20.8906L20.3731 20.2031C20.4668 20.2031 20.5606 20.1094 20.5606 19.9844C20.5606 19.8906 20.4668 19.7969 20.3731 19.7969L14.8731 19.1094C14.5606 19.0469 14.3106 18.8906 14.1856 18.6406L11.9981 14.6094C11.4356 13.5781 12.5293 12.3906 13.5918 12.8594Z" fill="white"/>
</svg>
